<?xml version="1.0" encoding="utf-8"?>
<!-- Generator: Adobe Illustrator 23.0.3, SVG Export Plug-In . SVG Version: 6.00 Build 0)  -->
<svg version="1.1" id="Layer_3" xmlns="http://www.w3.org/2000/svg" xmlns:xlink="http://www.w3.org/1999/xlink" x="0px" y="0px"
	 viewBox="0 0 40 40" style="enable-background:new 0 0 40 40;" xml:space="preserve">
<style type="text/css">
	.st0{clip-path:url(#SVGID_2_);}
</style>
<g>
	<defs>
		<path id="SVGID_1_" d="M14,10.1c5.4,0,10.2,3.1,12.5,7.9v-5.1H28v8.4h-8.4v-1.4h6.2c-1.8-5-6.5-8.4-11.8-8.4
			c-6.9,0-12.5,5.6-12.5,12.5H0.1C0.1,16.4,6.3,10.1,14,10.1z M14.8,15v2.9c2,0.3,3.5,1.6,3.5,3.3v0.4h-1.4v-0.4
			c0-1.1-1.3-1.9-2.8-1.9c-1.5,0-2.8,0.9-2.8,1.9c0,0.4,0,1.6,2.9,1.9c2.7,0.3,4.1,1.5,4.1,3.3c0,1.7-1.5,3-3.5,3.3v2.9h-1.4v-2.9
			c-2-0.3-3.5-1.6-3.5-3.3V26h1.4v0.4c0,1.1,1.3,1.9,2.8,1.9c1.5,0,2.8-0.9,2.8-1.9c0-0.4,0-1.6-2.9-2c-2.7-0.3-4.1-1.5-4.1-3.3
			c0-1.7,1.5-3,3.5-3.3V15H14.8z M28,24.1C28,31.7,21.7,38,14,38c-5.4,0-10.2-3.1-12.5-7.9v5.1H0.1v-8.4h8.4v1.4H2.2
			c1.8,5,6.5,8.4,11.8,8.4c6.9,0,12.5-5.6,12.5-12.5H28z"/>
	</defs>
	<clipPath id="SVGID_2_">
		<use xlink:href="#SVGID_1_"  style="overflow:visible;"/>
	</clipPath>
	<rect x="-2.2" y="7.8" class="st0" width="32.5" height="32.5"/>
</g>
</svg>
