<?xml version="1.0" encoding="utf-8"?>
<!-- Generator: Adobe Illustrator 23.0.3, SVG Export Plug-In . SVG Version: 6.00 Build 0)  -->
<svg version="1.1" id="Layer_2" xmlns="http://www.w3.org/2000/svg" xmlns:xlink="http://www.w3.org/1999/xlink" x="0px" y="0px"
	 viewBox="0 0 40 40" style="enable-background:new 0 0 40 40;" xml:space="preserve">
<style type="text/css">
	.st0{clip-path:url(#SVGID_2_);}
</style>
<g>
	<defs>
		<path id="SVGID_1_" d="M13.8,18.7c1.3,0.3,2.7,0.8,3.9,1.3c-0.4,0.1-0.9,0.2-1.3,0.4c-2-0.9-3.5-1.2-3.9-1.3
			C13,18.9,13.6,18.8,13.8,18.7z M11.3,19.5c1.3,0.3,3.3,1,3.9,1.3c-0.4,0.2-0.9,0.4-1.3,0.6c-1.6-0.8-3.4-1.3-3.9-1.4
			C10.4,19.9,10.9,19.6,11.3,19.5z M8.6,20.6c0.3,0.1,0.8,0.2,1.2,0.4c-0.7,0.3-2.4,1.2-4.6,2.7c-0.5-0.2-0.8-0.4-1.2-0.5
			C5,22.5,6.8,21.4,8.6,20.6z M11.1,21.5c0.4,0.2,0.9,0.4,1.4,0.6c-1.7,0.8-3.1,1.9-4.6,3c-0.5-0.3-0.9-0.5-1.3-0.8
			C8.4,23,9.9,22.1,11.1,21.5z M19.1,20.6c0.5,0.3,1,0.5,1.5,0.7c-3.5,1.1-6.7,3-9.9,5.5c-0.5-0.3-1-0.7-1.5-1
			C13.4,22.6,17,21.2,19.1,20.6z M15.1,28.9C15.1,28.9,15.1,28.9,15.1,28.9c0.1,0,0.1,0,0.1,0.1c0,0.1,0,0.1-0.1,0.1l0.1,0.1h0
			L15,29.1h0v0.1h0v-0.3H15.1z M15.1,28.9c-0.1,0-0.2,0.1-0.2,0.2c0,0.1,0.1,0.2,0.2,0.2c0.1,0,0.2-0.1,0.2-0.2
			C15.3,29,15.2,28.9,15.1,28.9z M15.1,28.8c0.1,0,0.2,0.1,0.2,0.2c0,0.1-0.1,0.2-0.2,0.2c-0.1,0-0.3-0.1-0.3-0.2
			C14.8,28.9,14.9,28.8,15.1,28.8z M22.1,22.2c0.6,0.4,1.2,0.7,1.6,0.9c-2.4,0.9-6.7,3.5-9.8,6.2c-0.5-0.4-1.1-0.9-1.7-1.3
			C15.4,25.5,19,23.2,22.1,22.2z M22.6,11.6H5.1c-2,0-3.6,1.6-3.6,3.6v17.6c0,2,1.6,3.6,3.6,3.6h17.6c2,0,3.6-1.6,3.6-3.6V15.2
			C26.3,13.2,24.6,11.6,22.6,11.6z M22.6,10.2c2.8,0,5,2.2,5,5v17.6c0,2.8-2.2,5-5,5H5.1c-2.8,0-5-2.2-5-5V15.2c0-2.8,2.2-5,5-5
			H22.6z"/>
	</defs>
	<clipPath id="SVGID_2_">
		<use xlink:href="#SVGID_1_"  style="overflow:visible;"/>
	</clipPath>
	<rect x="-2.2" y="7.9" class="st0" width="32.2" height="32.2"/>
</g>
</svg>
