<svg xmlns="http://www.w3.org/2000/svg" viewBox="0 0 24 24"><defs><style>.cls-1{fill:none;}</style></defs><title>bofa_icon_family2_blk</title><g id="_24_X_24_BOX" data-name="24 X 24 BOX"><rect class="cls-1" width="24" height="24"/></g><g id="ICON_OUTLINES" data-name="ICON OUTLINES"><path d="M18.239,11.781a4.836,4.836,0,0,0,1.642-4l0-.491A2.6,2.6,0,0,0,17,4.414a2.6,2.6,0,0,0-2.883,2.874v.489a4.952,4.952,0,0,0,1.521,3.906,5.157,5.157,0,0,0-1.373.514A2.292,2.292,0,0,0,12.017,11a3.748,3.748,0,0,0-.617.051A5.177,5.177,0,0,0,8.511,9.148,5.121,5.121,0,0,0,9.883,5.363V4.874A2.6,2.6,0,0,0,7,2,2.6,2.6,0,0,0,4.117,4.876l0,.487a4.981,4.981,0,0,0,1.5,3.886A5.353,5.353,0,0,0,2,14.365V22H6V21H3V14.365A4.328,4.328,0,0,1,6.226,10.1a4.23,4.23,0,0,1,4.186,1.344,2.379,2.379,0,0,0-.929,2.092l0,.414a4.227,4.227,0,0,0,1.4,3.449A4.7,4.7,0,0,0,7.758,22h1c0-1.853,1.219-3.769,3.259-3.769,2.094,0,3.225,1.942,3.225,3.769h1a4.573,4.573,0,0,0-3.107-4.594,4.213,4.213,0,0,0,1.414-3.46v-.417c0-.109-.014-.206-.022-.308a4.248,4.248,0,0,1,3.185-.562A4.329,4.329,0,0,1,21,16.955V21H17v1h5V16.955A5.344,5.344,0,0,0,18.239,11.781ZM7,8.781c-1.055,0-1.882-1.5-1.882-3.421l0-.486C5.117,3.561,5.68,3,7,3s1.883.561,1.883,1.874v.489C8.883,7.28,8.057,8.781,7,8.781Zm6.548,5.165c0,1.756-.795,2.843-1.531,2.843s-1.532-1.087-1.532-2.846l0-.414c0-1.069.459-1.525,1.534-1.525s1.532.456,1.532,1.525ZM17,11.2c-1.056,0-1.882-1.5-1.882-3.418V7.288c0-1.313.563-1.874,1.883-1.874s1.883.561,1.883,1.871l0,.492C18.881,9.694,18.054,11.2,17,11.2Z"/></g></svg>